Coordinates
version=1
nRows=17
nColumns=38
inDegrees=no

Units are S.I. units (second, meters, Newtons, ...)
If the header above contains a line with 'inDegrees', this indicates whether rotational values are in degrees (yes) or radians (no).

endheader
time	pelvis_tilt	pelvis_list	pelvis_rotation	pelvis_tx	pelvis_ty	pelvis_tz	hip_flexion_r	hip_adduction_r	hip_rotation_r	knee_angle_r	ankle_angle_r	subtalar_angle_r	mtp_angle_r	hip_flexion_l	hip_adduction_l	hip_rotation_l	knee_angle_l	ankle_angle_l	subtalar_angle_l	mtp_angle_l	lumbar_extension	lumbar_bending	lumbar_rotation	arm_flex_r	arm_add_r	arm_rot_r	elbow_flex_r	pro_sup_r	wrist_flex_r	wrist_dev_r	arm_flex_l	arm_add_l	arm_rot_l	elbow_flex_l	pro_sup_l	wrist_flex_l	wrist_dev_l
0	-1.09384	1.50856	2.65424	0.683279	-0.787341	1.03599	-0.232224	-0.0468123	-0.274375	0	-0.0734189	0	0	0.354143	-0.0167438	-0.482532	0.237445	-0.151611	0	0	-0.341584	-0.0409341	0.0206922	-0.140389	-0.40921	0.308357	0.827103	1.01783	0	0	-0.10781	-0.477892	0.311934	0.73097	1.22344	0	0
0.01	-0.177899	1.53412	1.74561	0.67836	-0.774841	1.03911	-0.20125	-0.015037	-0.168466	0.033097	-0.0613709	0	0	0.348053	-0.0374342	-0.401914	0.13593	-0.161113	0	0	-0.342581	0.014342	0.0267634	-0.112073	-0.420202	0.335831	0.790502	1.00915	0	0	-0.0868838	-0.44177	0.311224	0.67705	1.2294	0	0
0.02	0.505297	1.49272	1.06906	0.675417	-0.758739	1.03884	-0.165186	0.00199935	-0.406864	0.0981847	-0.0775132	0	0	0.371735	-0.0651421	-0.343649	0.0610447	-0.173099	0	0	-0.26577	0.0747103	0.060281	-0.138572	-0.425093	0.336466	0.746075	0.992274	0	0	-0.0381689	-0.386097	0.37253	0.536217	1.23427	0	0
0.03	0.12749	1.49586	1.43723	0.675036	-0.749688	1.03201	-0.16135	-0.0151778	-0.167711	0.0887904	-0.0341746	0	0	0.376542	-0.0255392	-0.324135	0.00602204	-0.181411	0	0	-0.2874	0.0224864	0.0438706	-0.113311	-0.419589	0.362769	0.762997	0.973242	0	0	-0.0835045	-0.43062	0.32669	0.63885	1.2271	0	0
0.04	1.0318	1.51569	0.543894	0.672427	-0.737756	1.03823	-0.209196	0.0185513	-0.410662	0.143487	-0.0641339	0	0	0.329326	-0.0562031	-0.314231	0	-0.181207	0	0	-0.347207	0.0599773	0.0551028	-0.0927101	-0.428519	0.381058	0.753475	0.94648	0	0	-0.0560347	-0.419098	0.335245	0.620688	1.23007	0	0
0.05	0.388186	1.51698	1.17929	0.67155	-0.725548	1.03081	-0.206731	0.000435636	-0.20588	0.121049	-0.0318648	0	0	0.356979	-0.0227325	-0.325924	0	-0.168108	0	0	-0.329789	0.0288533	0.0433113	-0.100925	-0.427177	0.372925	0.780788	0.945892	0	0	-0.0789964	-0.43091	0.316472	0.642333	1.226	0	0
0.06	0.392022	1.51471	1.17389	0.669941	-0.712351	1.02876	-0.211815	-0.00356148	-0.213301	0.136396	-0.0286864	0	0	0.362603	-0.0182062	-0.329057	0	-0.159873	0	0	-0.329196	0.0259801	0.0450604	-0.099303	-0.423878	0.374176	0.778832	0.943327	0	0	-0.0799072	-0.430608	0.314697	0.636924	1.2273	0	0
0.07	0.381208	1.5124	1.18247	0.668407	-0.698821	1.0269	-0.216353	-0.00871064	-0.220259	0.152231	-0.0281631	0	0	0.368386	-0.0138558	-0.331911	0	-0.152569	0	0	-0.327674	0.0219778	0.0479109	-0.0974719	-0.419236	0.375634	0.77399	0.939298	0	0	-0.0799832	-0.430191	0.314058	0.629644	1.22898	0	0
0.08	0.375258	1.51242	1.1867	0.666893	-0.685084	1.0254	-0.223547	-0.0144713	-0.223176	0.167448	-0.0291842	0	0	0.371567	-0.00972091	-0.333242	0	-0.148427	0	0	-0.328547	0.0173759	0.0506444	-0.0955936	-0.414145	0.376803	0.768911	0.934832	0	0	-0.07964	-0.430402	0.313784	0.623205	1.23011	0	0
0.09	0.35064	1.51414	1.20933	0.665529	-0.670904	1.02411	-0.230999	-0.0222327	-0.228441	0.185891	-0.0319596	0	0	0.37259	-0.00526711	-0.334879	0	-0.143422	0	0	-0.329904	0.0104277	0.0541752	-0.0940825	-0.407332	0.37796	0.761647	0.927832	0	0	-0.0791204	-0.431587	0.31421	0.616957	1.23242	0	0
0.1	0.319556	1.51634	1.23751	0.664308	-0.656265	1.02287	-0.238453	-0.030968	-0.236675	0.204431	-0.0376423	0	0	0.375454	-0.00362029	-0.345454	0.0270218	-0.131868	0	0	-0.330167	0.00240196	0.059384	-0.093472	-0.400136	0.380743	0.753215	0.918128	0	0	-0.0795093	-0.433615	0.31551	0.611847	1.23557	0	0
0.11	0.306015	1.51901	1.24687	0.663013	-0.641199	1.02183	-0.245569	-0.0394105	-0.238178	0.224054	-0.0457411	0	0	0.377527	-0.00499263	-0.359986	0.0703089	-0.118311	0	0	-0.330157	-0.00458605	0.0665699	-0.0933453	-0.393298	0.383982	0.743327	0.908986	0	0	-0.0796302	-0.43437	0.317208	0.605606	1.23621	0	0
0.12	0.29399	1.5213	1.25303	0.661715	-0.625866	1.02082	-0.250889	-0.0485703	-0.234079	0.248277	-0.0569581	0	0	0.378026	-0.00703185	-0.37376	0.113299	-0.107457	0	0	-0.329357	-0.0112928	0.0751851	-0.0931093	-0.386633	0.387416	0.731998	0.900241	0	0	-0.0806001	-0.434366	0.317934	0.59951	1.23468	0	0
0.13	0.268478	1.5258	1.2739	0.660325	-0.610397	1.01998	-0.257127	-0.0589824	-0.228387	0.273956	-0.0735822	0	0	0.373964	-0.00505033	-0.3809	0.146566	-0.106302	0	0	-0.33055	-0.0188293	0.0815713	-0.0933353	-0.379797	0.389664	0.721941	0.893271	0	0	-0.0830271	-0.435686	0.318029	0.596078	1.23144	0	0
0.14	0.210291	1.52326	1.32986	0.658678	-0.594185	1.01871	-0.25419	-0.0683485	-0.218685	0.303681	-0.091484	0	0	0.375518	-8.60717e-05	-0.380101	0.16755	-0.120436	0	0	-0.320696	-0.0255693	0.0853194	-0.0941379	-0.369617	0.392805	0.704387	0.887802	0	0	-0.0878959	-0.435926	0.317592	0.588026	1.22824	0	0
0.15	0.142823	1.51717	1.39459	0.656862	-0.578225	1.01759	-0.243178	-0.0786129	-0.202359	0.339993	-0.113652	0	0	0.380582	0.00509304	-0.378585	0.182675	-0.144949	0	0	-0.306386	-0.0325877	0.088498	-0.0929286	-0.358793	0.398443	0.683179	0.881722	0	0	-0.0927486	-0.4348	0.316016	0.577275	1.22321	0	0
0.16	0.0891412	1.50879	1.44514	0.654886	-0.562713	1.01672	-0.224782	-0.0890324	-0.178352	0.383214	-0.138983	0	0	0.38785	0.0074659	-0.376887	0.199532	-0.164415	0	0	-0.290416	-0.0389507	0.0921536	-0.0918249	-0.34923	0.404021	0.663897	0.874751	0	0	-0.0961851	-0.432371	0.314013	0.565138	1.21701	0	0
